<svg xmlns="http://www.w3.org/2000/svg" viewBox="0 0 240 140"><defs><linearGradient id="white" x1="0" y1="0" x2="0" y2="1"><stop stop-color="#fff"/><stop offset="1" stop-color="#dbe4ea"/></linearGradient><linearGradient id="green" x1="0" y1="0" x2="1" y2="1"><stop stop-color="#43e8a1"/><stop offset="1" stop-color="#08a86e"/></linearGradient><linearGradient id="yellow" x1="0" y1="0" x2="1" y2="1"><stop stop-color="#ffd52a"/><stop offset="1" stop-color="#f2a900"/></linearGradient><filter id="shadow"><feGaussianBlur stdDeviation="2.4"/></filter></defs><ellipse cx="120" cy="124" rx="83" ry="6" fill="#334155" opacity=".16" filter="url(#shadow)"/><path d="M24 40q0-12 12-12h157q20 0 22 19v57H24z" fill="url(#white)" stroke="#aebdca" stroke-width="2"/><path d="M40 39h145q13 0 18 12v28H40z" fill="#172a40"/><path d="M66 39v40m30-40v40m30-40v40m30-40v40" stroke="#53677a" stroke-width="2"/><circle cx="61" cy="108" r="16" fill="#25364b"/><circle cx="61" cy="108" r="7" fill="#aebdca"/><circle cx="181" cy="108" r="16" fill="#25364b"/><circle cx="181" cy="108" r="7" fill="#aebdca"/></svg>