<svg xmlns="http://www.w3.org/2000/svg" viewBox="0 0 240 140"><defs><linearGradient id="white" x1="0" y1="0" x2="0" y2="1"><stop stop-color="#fff"/><stop offset="1" stop-color="#dbe4ea"/></linearGradient><linearGradient id="green" x1="0" y1="0" x2="1" y2="1"><stop stop-color="#43e8a1"/><stop offset="1" stop-color="#08a86e"/></linearGradient><linearGradient id="yellow" x1="0" y1="0" x2="1" y2="1"><stop stop-color="#ffd52a"/><stop offset="1" stop-color="#f2a900"/></linearGradient><filter id="shadow"><feGaussianBlur stdDeviation="2.4"/></filter></defs><ellipse cx="120" cy="124" rx="83" ry="6" fill="#334155" opacity=".16" filter="url(#shadow)"/><path d="M35 102h82v13H35z" fill="#2c3e50"/><circle cx="49" cy="112" r="9" fill="#172a40"/><circle cx="70" cy="112" r="9" fill="#172a40"/><circle cx="91" cy="112" r="9" fill="#172a40"/><path d="M45 73h65v31H45zM82 70l32-31 12 9-22 25z" fill="url(#yellow)" stroke="#b87d00" stroke-width="2"/><path d="M118 42l56 18 18 39-12 5-19-31-51-16z" fill="#ffc928"/><path d="M180 96l28 1-5 21-31-5z" fill="#26364b"/></svg>